<?xml version="1.0" encoding="utf-8"?>
<!-- Generator: Adobe Illustrator 23.0.1, SVG Export Plug-In . SVG Version: 6.00 Build 0)  -->
<svg version="1.1" id="Layer_1" xmlns="http://www.w3.org/2000/svg" xmlns:xlink="http://www.w3.org/1999/xlink" x="0px" y="0px"
	 viewBox="0 0 564 448" style="enable-background:new 0 0 564 448;" xml:space="preserve">
<style type="text/css">
	.st0{fill:#FFFFFF;}
	.st1{fill:none;stroke:#FFFFFF;stroke-width:12;stroke-linecap:round;stroke-miterlimit:10;}
</style>
<path class="st0" d="M531.4,3H35.6C19.25,3,6,16.25,6,32.6v333c0,16.35,13.25,29.6,29.6,29.6h162.8v29.6h-51.11
	c-16.49,0-29.84,13.19-30.21,29.6h325.45c-0.38-16.41-13.72-29.6-30.21-29.6H368.6v-29.6h162.8c16.35,0,29.6-13.25,29.6-29.6v-333
	C561,16.25,547.75,3,531.4,3z M538.8,350.8H28.2V32.6h510.6V350.8z"/>
<g>
	<path id="cloud-wind" class="st1" d="M106.67,214.84h288.41c35.85,0,64.92-29.15,64.92-64.95l0,0c0-35.87-29.15-64.95-64.95-64.95
		c-35.87,0-64.95,29.06-64.95,64.95 M232.68,149.9c0-17.94,14.41-32.47,32.47-32.47c17.94,0,32.47,14.41,32.47,32.47
		c0,17.94-14.56,32.47-32.57,32.47H138.32 M330.1,263.56c0,8.97,7.21,16.24,16.24,16.24l0,0c8.97,0,16.24-7.21,16.24-16.24l0,0
		c0-8.97-7.29-16.24-16.36-16.24H174.07"/>
</g>
</svg>
